<svg width="26" height="24" viewBox="0 0 26 24" fill="none" xmlns="http://www.w3.org/2000/svg">
<path d="M7.57748 1.45258L7.89032 0.770938V0.770938L7.57748 1.45258ZM22.4957 8.29936L22.1829 8.981L22.4957 8.29936ZM22.4895 15.7331L22.8014 16.4152V16.4152L22.4895 15.7331ZM7.5792 22.5503L7.26734 21.8682L7.5792 22.5503ZM1.23446 17.5633L0.526555 17.3155H0.526555L1.23446 17.5633ZM1.22504 6.43239L0.516838 6.67928L1.22504 6.43239ZM7.92725 12.7719C8.34147 12.7719 8.67725 12.4361 8.67725 12.0219C8.67725 11.6077 8.34147 11.2719 7.92725 11.2719V12.7719ZM7.26464 2.13421L22.1829 8.981L22.8086 7.61772L7.89032 0.770938L7.26464 2.13421ZM22.1777 15.0511L7.26734 21.8682L7.89105 23.2324L22.8014 16.4152L22.1777 15.0511ZM1.94236 17.811L3.88155 12.2696L2.46574 11.7742L0.526555 17.3155L1.94236 17.811ZM3.88185 11.775L1.93323 6.1855L0.516838 6.67928L2.46545 12.2688L3.88185 11.775ZM3.17365 12.7719H7.92725V11.2719H3.17365V12.7719ZM7.26734 21.8682C5.74428 22.5645 4.14895 22.2492 3.06376 21.3963C1.98393 20.5475 1.45197 19.2123 1.94236 17.811L0.526555 17.3155C-0.208624 19.4163 0.635857 21.3958 2.13682 22.5756C3.63242 23.7511 5.82225 24.1782 7.89105 23.2324L7.26734 21.8682ZM22.1829 8.981C24.9412 10.2469 24.9386 13.7887 22.1777 15.0511L22.8014 16.4152C26.7293 14.6193 26.734 9.41933 22.8086 7.61772L22.1829 8.981ZM7.89032 0.770938C5.82254 -0.178077 3.63166 0.246422 2.13421 1.42031C0.631419 2.59838 -0.215988 4.5772 0.516838 6.67928L1.93323 6.1855C1.44444 4.7834 1.97828 3.44851 3.05963 2.60081C4.14633 1.74893 5.74248 1.43561 7.26464 2.13421L7.89032 0.770938Z" fill="white"/>
</svg>
