<?xml version="1.0" encoding="utf-8"?>
<!-- Generator: Adobe Illustrator 25.2.0, SVG Export Plug-In . SVG Version: 6.00 Build 0)  -->
<svg version="1.1" id="Layer_1" xmlns="http://www.w3.org/2000/svg" xmlns:xlink="http://www.w3.org/1999/xlink" x="0px" y="0px"
	 viewBox="0 0 16 16" style="enable-background:new 0 0 16 16;" xml:space="preserve">
<style type="text/css">
	.st0{fill:#3385D7;}
	.st1{fill:#FFFFFF;}
</style>
<rect class="st0" width="16" height="16"/>
<g>
	<path class="st1" d="M14.1,7.6c-1.4,0-2.8-0.1-4.1,0C7.6,7.8,5.4,8.4,3.4,9.8c-0.9,0.6-1.7,1.4-2.2,2.4c1.1,0.1,2,0.1,2.8-0.7
		c0.9-1,2.1-1.6,3.3-2.1c0.5,0.9,1,1.7,1.5,2.6C8.9,12,9,12.2,9.1,12.2c0.6,0,1.2,0,1.9,0C10.3,11,9.6,9.8,8.9,8.6
		c0.8-0.2,1.5-0.3,2.2-0.5c0.2,0,0.4-0.1,0.5-0.1C11.8,8,11.9,8,12,7.9c0.1,0,0.3,0,0.4,0c0.3,0,0.5,0,0.8-0.1c0.3,0,0.5,0,0.8-0.1
		c0.1,0,0.3,0,0.4,0c0.1,0,0.1,0,0.2,0c0,0,0.1,0,0.1,0c0,0,0,0,0.1,0c0,0,0,0,0,0C14.6,7.6,14.3,7.6,14.1,7.6z"/>
	<path class="st1" d="M6.1,7.3C6.1,7.2,6.1,7.2,6.1,7.3c0.1,0.1,0.2,0.3,0.3,0.4c0.1,0.1,0.2,0.2,0.3,0.2c0.5-0.1,1-0.3,1.6-0.4
		C7.5,6.2,6.8,5,6.1,3.8C4.9,5.8,3.7,7.8,2.6,9.8c0.5-0.3,1-0.6,1.5-0.9C4.9,8.6,5.7,8.2,6.1,7.3z"/>
</g>
</svg>
