<svg width="345" height="304" viewBox="0 0 345 304" fill="none" xmlns="http://www.w3.org/2000/svg">
<path opacity="0.2" d="M18.5244 138.485C-3.25444 89.6348 44.7396 64.764 71.4589 58.4348C108.045 34.4846 146.398 3.53959e-10 208.065 0C280.013 0 277.636 14.6722 328.843 102.058C380.049 189.444 298.157 160.709 241.555 235.618C170.471 329.693 71.4589 319.945 18.5244 247.447C-34.4102 174.949 45.7479 199.547 18.5244 138.485Z" fill="#EAF2FB"/>
<path fill-rule="evenodd" clip-rule="evenodd" d="M222.684 86H122V217.364H222.684V116.68L197.189 86H222.684V86Z" fill="#EEF6FB"/>
<path d="M197.189 116.68V86L222.684 116.68H197.189Z" fill="#3385D7"/>
<path d="M114.026 167.066C111.408 167.066 108.764 167.015 106.095 166.912C103.426 166.758 100.962 166.347 98.703 165.68C96.4957 165.013 94.7247 163.909 93.39 162.369C92.0553 160.829 91.388 158.673 91.388 155.901C91.388 154.053 91.85 151.794 92.774 149.125C93.698 146.456 94.8787 143.607 96.316 140.578C97.8047 137.498 99.396 134.418 101.09 131.338C102.835 128.207 104.529 125.229 106.172 122.406C107.815 119.531 109.252 117.016 110.484 114.86L120.802 120.712C120.853 119.121 120.879 117.632 120.879 116.246L133.353 116.4C133.045 121.636 132.711 127.539 132.352 134.11C132.044 140.681 131.71 147.277 131.351 153.899C133.507 153.694 135.663 153.411 137.819 153.052C139.975 152.693 142.105 152.256 144.21 151.743L144.903 164.525C142.439 164.884 140.001 165.218 137.588 165.526C135.227 165.834 132.917 166.091 130.658 166.296C130.504 169.479 130.35 172.559 130.196 175.536C130.042 178.462 129.888 181.183 129.734 183.698L116.644 183.39C116.952 180.977 117.234 178.385 117.491 175.613C117.799 172.841 118.081 169.966 118.338 166.989C116.849 167.04 115.412 167.066 114.026 167.066ZM109.637 154.746C110.664 154.797 111.665 154.823 112.64 154.823C113.615 154.823 114.565 154.823 115.489 154.823C116.721 154.823 117.953 154.797 119.185 154.746C119.596 148.843 119.929 142.991 120.186 137.19C120.443 131.389 120.648 126.153 120.802 121.482C119.416 123.433 117.902 125.743 116.259 128.412C114.668 131.03 113.102 133.751 111.562 136.574C110.022 139.397 108.662 142.015 107.481 144.428C106.506 146.481 105.71 148.175 105.094 149.51C104.478 150.793 104.17 151.794 104.17 152.513C104.17 153.232 104.581 153.771 105.402 154.13C106.223 154.438 107.635 154.643 109.637 154.746ZM170.852 184.006C166.951 184.006 163.46 183.082 160.38 181.234C157.3 179.437 154.682 176.973 152.526 173.842C150.421 170.711 148.804 167.169 147.675 163.216C146.546 159.263 145.981 155.157 145.981 150.896C145.981 145.814 146.674 141.04 148.06 136.574C149.497 132.057 151.551 128.027 154.22 124.485C156.889 120.943 160.098 118.017 163.845 115.707L164.923 118.017C167.438 116.734 170.159 116.092 173.085 116.092C177.294 116.092 180.965 117.016 184.096 118.864C187.279 120.661 189.897 123.125 191.95 126.256C194.055 129.336 195.62 132.801 196.647 136.651C197.725 140.501 198.264 144.479 198.264 148.586C198.264 154.695 197.468 159.982 195.877 164.448C194.337 168.914 192.258 172.584 189.64 175.459C187.022 178.334 184.07 180.464 180.785 181.85C177.551 183.287 174.24 184.006 170.852 184.006ZM158.609 151.589C158.609 153.437 158.789 155.516 159.148 157.826C159.559 160.136 160.252 162.343 161.227 164.448C162.202 166.501 163.511 168.221 165.154 169.607C166.848 170.942 169.004 171.609 171.622 171.609C174.445 171.609 176.909 170.659 179.014 168.76C181.119 166.809 182.761 164.114 183.942 160.675C185.174 157.236 185.79 153.257 185.79 148.74C185.79 144.223 185.097 140.527 183.711 137.652C182.376 134.726 180.682 132.57 178.629 131.184C176.627 129.747 174.599 129.028 172.546 129.028C171.468 129.028 170.441 129.336 169.466 129.952C168.491 130.568 167.721 131.389 167.156 132.416L166.078 130.106C163.665 132.519 161.946 134.957 160.919 137.421C159.892 139.885 159.251 142.323 158.994 144.736C158.737 147.097 158.609 149.382 158.609 151.589ZM224.494 167.066C221.876 167.066 219.232 167.015 216.563 166.912C213.894 166.758 211.43 166.347 209.171 165.68C206.964 165.013 205.193 163.909 203.858 162.369C202.523 160.829 201.856 158.673 201.856 155.901C201.856 154.053 202.318 151.794 203.242 149.125C204.166 146.456 205.347 143.607 206.784 140.578C208.273 137.498 209.864 134.418 211.558 131.338C213.303 128.207 214.997 125.229 216.64 122.406C218.283 119.531 219.72 117.016 220.952 114.86L231.27 120.712C231.321 119.121 231.347 117.632 231.347 116.246L243.821 116.4C243.513 121.636 243.179 127.539 242.82 134.11C242.512 140.681 242.178 147.277 241.819 153.899C243.975 153.694 246.131 153.411 248.287 153.052C250.443 152.693 252.573 152.256 254.678 151.743L255.371 164.525C252.907 164.884 250.469 165.218 248.056 165.526C245.695 165.834 243.385 166.091 241.126 166.296C240.972 169.479 240.818 172.559 240.664 175.536C240.51 178.462 240.356 181.183 240.202 183.698L227.112 183.39C227.42 180.977 227.702 178.385 227.959 175.613C228.267 172.841 228.549 169.966 228.806 166.989C227.317 167.04 225.88 167.066 224.494 167.066ZM220.105 154.746C221.132 154.797 222.133 154.823 223.108 154.823C224.083 154.823 225.033 154.823 225.957 154.823C227.189 154.823 228.421 154.797 229.653 154.746C230.064 148.843 230.397 142.991 230.654 137.19C230.911 131.389 231.116 126.153 231.27 121.482C229.884 123.433 228.37 125.743 226.727 128.412C225.136 131.03 223.57 133.751 222.03 136.574C220.49 139.397 219.13 142.015 217.949 144.428C216.974 146.481 216.178 148.175 215.562 149.51C214.946 150.793 214.638 151.794 214.638 152.513C214.638 153.232 215.049 153.771 215.87 154.13C216.691 154.438 218.103 154.643 220.105 154.746Z" fill="#3385D7"/>
</svg>
