<svg width="98" height="29" viewBox="0 0 98 29" fill="none" xmlns="http://www.w3.org/2000/svg">
<path d="M0 28.005C1.70277 24.4216 4.30776 21.9564 7.34479 19.9105C13.9144 15.463 21.3101 13.3663 29.0869 12.7055C33.6615 12.3243 38.2997 12.6165 42.8997 12.6546C43.6494 12.6546 44.3991 12.8834 45.1235 13.1757C42.6328 13.3408 40.1295 13.5187 37.5499 13.6839C38.0201 14.4337 38.3759 15.0182 38.5284 15.2596C40.0914 14.7768 41.5654 14.1922 43.0903 13.8873C44.3356 13.6331 45.2251 14.3193 45.3649 15.6409C45.492 16.937 44.7549 17.6867 43.535 17.9536C40.3836 18.6271 39.545 19.6182 39.5196 22.7823C39.5068 23.9768 39.545 25.1713 39.5068 26.3658C39.456 27.8144 38.6428 28.6023 37.2831 28.615C35.9361 28.615 35.3516 27.9923 35.3389 26.3912C35.3135 23.0238 35.288 19.6436 35.3643 16.2762C35.377 15.5138 35.7836 14.7641 36.0632 13.8237C32.6958 14.5862 29.2902 15.3613 25.6051 16.2C27.9178 20.2028 30.1035 24.0022 32.4797 28.1321C30.2433 28.1321 28.2609 28.1829 26.2913 28.0813C25.9355 28.0685 25.5543 27.4205 25.3128 27.0011C23.6482 24.1928 22.009 21.3718 20.3062 18.4492C16.189 20.2155 12.1735 22.2359 9.26359 25.5271C6.59506 28.4752 3.59615 28.2846 0 28.005Z" fill="white"/>
<path d="M65.288 22.707C66.4697 25.0197 68.1725 25.7059 70.3327 24.9435C70.7267 24.8037 71.0825 24.6004 71.4637 24.4352C72.3405 24.0412 73.2046 23.9269 73.7891 24.8799C74.3864 25.8711 73.9416 26.6462 73.1537 27.3197C70.2184 29.823 64.983 29.175 62.5559 26.0109C60.5355 23.3678 60.4719 19.4031 62.4288 16.7092C64.2841 14.155 67.8167 13.113 70.93 14.2312C73.5223 15.1589 75.3267 17.713 75.2886 20.4324C75.2632 22.1352 74.7549 22.6943 73.0775 22.707C70.5488 22.7197 68.02 22.707 65.288 22.707ZM71.5145 19.9114C70.9808 18.0561 70.0532 17.3445 68.4521 17.3572C66.8128 17.3826 65.7963 18.2086 65.4023 19.9114C67.4101 19.9114 69.3924 19.9114 71.5145 19.9114Z" fill="white"/>
<path d="M16.2014 0C18.6539 4.24422 20.9413 8.17076 23.3429 12.3133C21.5004 12.7835 19.7849 13.2664 18.044 13.6349C17.8153 13.6857 17.4086 13.2282 17.1799 12.936C16.8368 12.4912 16.57 11.9829 16.2777 11.5001C16.176 11.5636 16.1125 11.5763 16.0998 11.6144C14.9053 14.6515 12.3003 15.9984 9.54285 17.2819C7.82737 18.0824 6.3025 19.3023 4.47266 20.2299C8.32295 13.5713 12.186 6.90004 16.2014 0Z" fill="white"/>
<path d="M54.9456 18.043C54.9456 20.1524 54.9456 22.2237 54.9456 24.2823C54.9456 24.905 54.971 25.5276 54.9329 26.1503C54.8439 27.6878 54.0561 28.5646 52.8362 28.5646C51.6036 28.5646 50.7649 27.6878 50.7141 26.1757C50.6505 24.1044 50.6887 22.0204 50.6887 19.9491C50.6887 19.3392 50.6887 18.7292 50.6887 18.043C49.1511 17.8524 47.5246 17.7762 47.5754 15.8574C47.6262 14.0784 49.1003 13.8751 50.5489 13.8369C50.9301 12.1977 50.1422 9.71979 52.7726 9.70708C55.3522 9.69438 54.8312 12.0452 54.9964 13.7861C56.3942 13.9513 57.9953 13.964 58.0334 15.7812C58.097 17.6999 56.5086 17.8397 54.9456 18.043Z" fill="white"/>
<path d="M83.2063 15.1454C84.6295 14.726 86.1544 14.1669 87.7301 13.8747C88.9373 13.6586 89.7251 14.4719 89.8268 15.6537C89.9412 16.8481 89.255 17.6233 88.1113 17.9029C84.5787 18.7924 84.0069 19.504 83.9942 23.0874C83.9942 24.1802 84.0323 25.2603 83.9815 26.3532C83.9179 27.751 83.0538 28.5642 81.7196 28.5769C80.182 28.5896 79.8008 27.6239 79.8008 26.3278C79.8008 23.0112 79.8008 19.6946 79.8008 16.378C79.8008 15.336 79.9406 14.1669 81.1096 14.078C81.8466 14.0398 82.6345 14.8404 83.2063 15.1454Z" fill="white"/>
<path d="M97.7573 21.2579C97.7573 22.9098 97.7828 24.5745 97.7446 26.2264C97.7192 27.7005 96.8678 28.6154 95.6479 28.59C94.4408 28.5646 93.6021 27.6242 93.5894 26.1756C93.564 22.9098 93.564 19.6568 93.5894 16.391C93.6021 14.9551 94.428 14.0021 95.6479 13.9512C96.8551 13.9004 97.7192 14.8153 97.7573 16.3021C97.7828 17.9413 97.7573 19.5933 97.7573 21.2579Z" fill="white"/>
<path d="M95.7335 12.681C94.5898 12.6683 93.5859 11.6263 93.5859 10.4573C93.5859 9.28819 94.5771 8.27162 95.7335 8.2462C96.9406 8.23349 98.0462 9.35173 97.9953 10.5335C97.9445 11.6772 96.8517 12.7064 95.7335 12.681Z" fill="white"/>
</svg>
