<svg width="46" height="46" viewBox="0 0 46 46" fill="none" xmlns="http://www.w3.org/2000/svg">
<circle cx="23" cy="23" r="23" fill="white"/>
<path d="M17.7602 33H28.2402C31.0002 33 32.1002 31.31 32.2302 29.25L32.7502 20.99C32.8902 18.83 31.1702 17 29.0002 17C28.3902 17 27.8302 16.65 27.5502 16.11L26.8302 14.66C26.3702 13.75 25.1702 13 24.1502 13H21.8602C20.8302 13 19.6302 13.75 19.1702 14.66L18.4502 16.11C18.1702 16.65 17.6102 17 17.0002 17C14.8302 17 13.1102 18.83 13.2502 20.99L13.7702 29.25C13.8902 31.31 15.0002 33 17.7602 33Z" stroke="#292D32" stroke-width="1.5" stroke-linecap="round" stroke-linejoin="round"/>
<path d="M21.5 19H24.5" stroke="#292D32" stroke-width="1.5" stroke-linecap="round" stroke-linejoin="round"/>
<path d="M23 29C24.79 29 26.25 27.54 26.25 25.75C26.25 23.96 24.79 22.5 23 22.5C21.21 22.5 19.75 23.96 19.75 25.75C19.75 27.54 21.21 29 23 29Z" stroke="#292D32" stroke-width="1.5" stroke-linecap="round" stroke-linejoin="round"/>
</svg>
