<svg width="82" height="22" viewBox="0 0 82 22" fill="none" xmlns="http://www.w3.org/2000/svg">
<path d="M0 20.6628C1.42589 17.9325 3.60728 16.0542 6.15046 14.4954C11.6518 11.1068 17.8448 9.50924 24.3571 9.00579C28.1878 8.71533 32.0718 8.93801 35.9238 8.96706C36.5516 8.96706 37.1794 9.14133 37.786 9.36402C35.7003 9.48988 33.6041 9.62543 31.444 9.75129C31.8377 10.3225 32.1356 10.7679 32.2633 10.9518C33.5721 10.5839 34.8065 10.1386 36.0834 9.9062C37.1262 9.71256 37.8711 10.2354 37.9881 11.2423C38.0945 12.2298 37.4774 12.8011 36.4558 13.0044C33.8169 13.5175 33.1146 14.2727 33.0933 16.6835C33.0827 17.5936 33.1146 18.5037 33.0827 19.4138C33.0401 20.5175 32.3591 21.1178 31.2205 21.1275C30.0926 21.1275 29.6031 20.6531 29.5924 19.4332C29.5712 16.8675 29.5499 14.2921 29.6137 11.7264C29.6244 11.1455 29.9649 10.5742 30.199 9.85779C27.3791 10.4387 24.5274 11.0293 21.4415 11.6683C23.3781 14.7181 25.2084 17.613 27.1982 20.7596C25.3254 20.7596 23.6654 20.7983 22.0161 20.7209C21.7181 20.7112 21.3989 20.2174 21.1967 19.8979C19.8028 17.7582 18.4301 15.6088 17.0042 13.382C13.5566 14.7278 10.194 16.2672 7.75724 18.7748C5.52265 21.021 3.01138 20.8758 0 20.6628Z" fill="#3385D7"/>
<path d="M54.601 16.4803C55.5935 18.2289 57.0235 18.7477 58.8376 18.1712C59.1684 18.0656 59.4672 17.9118 59.7874 17.7869C60.5237 17.4891 61.2494 17.4026 61.7403 18.1232C62.2418 18.8726 61.8683 19.4587 61.2067 19.9679C58.7416 21.8606 54.3449 21.3706 52.3066 18.9783C50.6099 16.9799 50.5565 13.9823 52.1999 11.9454C53.758 10.0143 56.7246 9.22642 59.3392 10.0719C61.5162 10.7733 63.0315 12.7044 62.9995 14.7605C62.9782 16.0479 62.5513 16.4707 61.1427 16.4803C59.019 16.4899 56.8954 16.4803 54.601 16.4803ZM59.8301 14.3666C59.3819 12.9638 58.6028 12.4258 57.2582 12.4354C55.8816 12.4546 55.0279 13.0791 54.6971 14.3666C56.3832 14.3666 58.0479 14.3666 59.8301 14.3666Z" fill="#3385D7"/>
<path d="M13.3232 0.0943604C15.2727 3.22005 17.0909 6.11178 19 9.1626C17.5354 9.50886 16.1717 9.86448 14.7879 10.1359C14.6061 10.1733 14.2828 9.8364 14.101 9.62116C13.8283 9.29362 13.6162 8.91928 13.3838 8.56367C13.303 8.61046 13.2525 8.61982 13.2424 8.64789C12.2929 10.8845 10.2222 11.8765 8.0303 12.8217C6.66667 13.4113 5.45455 14.3097 4 14.9929C7.06061 10.0891 10.1313 5.17594 13.3232 0.0943604Z" fill="#3385D7"/>
<path d="M45.6372 13.3039C45.6372 14.8725 45.6372 16.4126 45.6372 17.9433C45.6372 18.4063 45.6566 18.8693 45.6275 19.3323C45.5594 20.4756 44.9569 21.1276 44.024 21.1276C43.0814 21.1276 42.44 20.4756 42.4012 19.3512C42.3526 17.811 42.3817 16.2614 42.3817 14.7213C42.3817 14.2677 42.3817 13.8142 42.3817 13.3039C41.2059 13.1622 39.962 13.1055 40.0009 11.6787C40.0398 10.3559 41.167 10.2047 42.2748 10.1764C42.5664 8.95748 41.9639 7.11496 43.9754 7.10551C45.9481 7.09606 45.5497 8.84409 45.6761 10.1386C46.745 10.2614 47.9694 10.2709 47.9986 11.6221C48.0472 13.0488 46.8325 13.1528 45.6372 13.3039Z" fill="#3385D7"/>
<path d="M69.0533 11.5426C70.3293 11.2434 71.6964 10.8444 73.1091 10.6358C74.1914 10.4816 74.8978 11.062 74.9889 11.9053C75.0914 12.7577 74.4762 13.3109 73.4509 13.5104C70.2837 14.1451 69.771 14.6529 69.7596 17.2101C69.7596 17.9899 69.7938 18.7607 69.7482 19.5406C69.6913 20.538 68.9165 21.1184 67.7203 21.1275C66.3418 21.1365 66 20.4474 66 19.5224C66 17.1557 66 14.7889 66 12.4222C66 11.6786 66.1253 10.8444 67.1735 10.7809C67.8342 10.7537 68.5406 11.325 69.0533 11.5426Z" fill="#3385D7"/>
<path d="M80.9919 15.8607C80.9919 17.0472 81.0101 18.2429 80.9828 19.4295C80.9647 20.4883 80.3563 21.1454 79.4846 21.1272C78.622 21.1089 78.0227 20.4335 78.0136 19.393C77.9955 17.0472 77.9955 14.7106 78.0136 12.3649C78.0227 11.3335 78.6129 10.6489 79.4846 10.6124C80.3472 10.5759 80.9647 11.2331 80.9919 12.301C81.0101 13.4784 80.9919 14.665 80.9919 15.8607Z" fill="#3385D7"/>
<path d="M79.9474 9.73417C78.9103 9.72412 78 8.90058 78 7.97661C78 7.05263 78.8988 6.24918 79.9474 6.22909C81.0421 6.21905 82.0446 7.10285 81.9985 8.03687C81.9524 8.94075 80.9614 9.75425 79.9474 9.73417Z" fill="#3385D7"/>
</svg>
