<svg width="136" height="40" viewBox="0 0 136 40" fill="none" xmlns="http://www.w3.org/2000/svg">
<path d="M0 38.774C2.35741 33.8128 5.96389 30.3999 10.1685 27.5675C19.2639 21.4101 29.5028 18.5073 40.2694 17.5925C46.6028 17.0647 53.0241 17.4693 59.3926 17.5221C60.4306 17.5221 61.4685 17.8388 62.4713 18.2434C59.0231 18.4721 55.5574 18.7184 51.9861 18.9471C52.637 19.9851 53.1296 20.7943 53.3407 21.1286C55.5046 20.4601 57.5454 19.6508 59.6565 19.2286C61.3806 18.8767 62.612 19.8267 62.8056 21.6564C62.9815 23.4508 61.9611 24.4888 60.2722 24.8582C55.9093 25.7906 54.7481 27.1628 54.713 31.5434C54.6954 33.1971 54.7481 34.8508 54.6954 36.5045C54.625 38.5101 53.4991 39.6008 51.6167 39.6184C49.7519 39.6184 48.9426 38.7564 48.925 36.5397C48.8898 31.8777 48.8546 27.198 48.9602 22.536C48.9778 21.4804 49.5407 20.4425 49.9278 19.1406C45.2657 20.1962 40.5509 21.2693 35.4491 22.4304C38.6509 27.9721 41.6769 33.2323 44.9667 38.9499C41.8704 38.9499 39.1259 39.0203 36.3991 38.8795C35.9065 38.8619 35.3787 37.9647 35.0444 37.3841C32.7398 33.4962 30.4704 29.5906 28.113 25.5443C22.413 27.9897 16.8537 30.7869 12.825 35.3434C9.13056 39.4249 4.9787 39.161 0 38.774Z" fill="white"/>
<path d="M90.3906 31.438C92.0267 34.6399 94.3841 35.5899 97.3748 34.5343C97.9202 34.3408 98.4128 34.0593 98.9406 33.8306C100.154 33.2852 101.351 33.1269 102.16 34.4464C102.987 35.8186 102.371 36.8917 101.28 37.8241C97.2165 41.2899 89.9684 40.3927 86.6082 36.0121C83.811 32.3528 83.723 26.864 86.4323 23.1343C89.0008 19.5982 93.8915 18.1556 98.2017 19.7038C101.791 20.988 104.289 24.5241 104.236 28.2889C104.201 30.6464 103.497 31.4204 101.175 31.438C97.6739 31.4556 94.173 31.438 90.3906 31.438ZM99.011 27.5677C98.2721 24.9991 96.9878 24.0139 94.7711 24.0315C92.5017 24.0667 91.0943 25.2103 90.5489 27.5677C93.3285 27.5677 96.073 27.5677 99.011 27.5677Z" fill="white"/>
<path d="M22.4303 0C25.8257 5.87593 28.9924 11.312 32.3174 17.0472C29.7665 17.6982 27.3915 18.3667 24.9813 18.8769C24.6646 18.9472 24.1016 18.3139 23.785 17.9093C23.31 17.2935 22.9405 16.5898 22.5359 15.9213C22.3952 16.0093 22.3072 16.0269 22.2896 16.0796C20.6359 20.2843 17.0294 22.1491 13.2118 23.9259C10.8368 25.0343 8.72572 26.7232 6.19238 28.0074C11.5229 18.7889 16.8711 9.55278 22.4303 0Z" fill="white"/>
<path d="M76.0705 24.9815C76.0705 27.9019 76.0705 30.7694 76.0705 33.6194C76.0705 34.4815 76.1057 35.3435 76.053 36.2056C75.9298 38.3343 74.8391 39.5481 73.1502 39.5481C71.4437 39.5481 70.2826 38.3343 70.2122 36.2407C70.1243 33.3732 70.177 30.488 70.177 27.6204C70.177 26.7759 70.177 25.9315 70.177 24.9815C68.0483 24.7176 65.7965 24.612 65.8668 21.9556C65.9372 19.4926 67.978 19.2111 69.9835 19.1583C70.5113 16.8889 69.4206 13.4583 73.0622 13.4407C76.6335 13.4232 75.9122 16.6778 76.1409 19.088C78.0761 19.3167 80.2928 19.3343 80.3455 21.85C80.4335 24.5065 78.2344 24.7 76.0705 24.9815Z" fill="white"/>
<path d="M115.196 20.9703C117.167 20.3897 119.278 19.6157 121.459 19.211C123.131 18.912 124.221 20.0379 124.362 21.674C124.52 23.3277 123.57 24.4008 121.987 24.7879C117.096 26.0194 116.305 27.0046 116.287 31.9657C116.287 33.4786 116.34 34.974 116.269 36.487C116.181 38.4221 114.985 39.5481 113.138 39.5657C111.009 39.5833 110.481 38.2462 110.481 36.4518C110.481 31.8601 110.481 27.2684 110.481 22.6768C110.481 21.2342 110.675 19.6157 112.293 19.4925C113.314 19.4397 114.405 20.5481 115.196 20.9703Z" fill="white"/>
<path d="M135.34 29.4325C135.34 31.7195 135.375 34.0242 135.322 36.3112C135.287 38.3519 134.108 39.6186 132.419 39.5834C130.748 39.5482 129.587 38.2464 129.569 36.2408C129.534 31.7195 129.534 27.2158 129.569 22.6945C129.587 20.7066 130.73 19.3871 132.419 19.3168C134.091 19.2464 135.287 20.513 135.34 22.5714C135.375 24.8408 135.34 27.1279 135.34 29.4325Z" fill="white"/>
<path d="M132.542 17.5574C130.959 17.5398 129.569 16.0973 129.569 14.4787C129.569 12.8602 130.942 11.4528 132.542 11.4176C134.214 11.4 135.744 12.9482 135.674 14.5843C135.604 16.1676 134.091 17.5926 132.542 17.5574Z" fill="white"/>
</svg>
