<svg width="365" height="305" viewBox="0 0 365 305" fill="none" xmlns="http://www.w3.org/2000/svg">
<path fill-rule="evenodd" clip-rule="evenodd" d="M240 0.5H66V304.5H299V71.5L240 0.5Z" fill="#EEF6FB"/>
<path d="M240 71.5V0.5L299 71.5H240Z" fill="#3385D7"/>
<path d="M56.446 201.786C50.768 201.786 45.0343 201.675 39.245 201.452C33.4557 201.118 28.1117 200.227 23.213 198.78C18.4257 197.333 14.5847 194.939 11.69 191.599C8.79533 188.259 7.348 183.583 7.348 177.571C7.348 173.563 8.35 168.664 10.354 162.875C12.358 157.086 14.9187 150.907 18.036 144.338C21.2647 137.658 24.716 130.978 28.39 124.298C32.1753 117.507 35.8493 111.049 39.412 104.926C42.9747 98.6913 46.092 93.236 48.764 88.56L71.142 101.252C71.2533 97.8007 71.309 94.572 71.309 91.566L98.363 91.9C97.695 103.256 96.9713 116.059 96.192 130.31C95.524 144.561 94.8003 158.867 94.021 173.229C98.697 172.784 103.373 172.171 108.049 171.392C112.725 170.613 117.345 169.666 121.91 168.553L123.413 196.275C118.069 197.054 112.781 197.778 107.548 198.446C102.427 199.114 97.4167 199.671 92.518 200.116C92.184 207.019 91.85 213.699 91.516 220.156C91.182 226.502 90.848 232.403 90.514 237.858L62.124 237.19C62.792 231.957 63.4043 226.335 63.961 220.323C64.629 214.311 65.2413 208.076 65.798 201.619C62.5693 201.73 59.452 201.786 56.446 201.786ZM46.927 175.066C49.1537 175.177 51.3247 175.233 53.44 175.233C55.5553 175.233 57.615 175.233 59.619 175.233C62.291 175.233 64.963 175.177 67.635 175.066C68.5257 162.263 69.2493 149.571 69.806 136.99C70.3627 124.409 70.808 113.053 71.142 102.922C68.136 107.153 64.8517 112.163 61.289 117.952C57.8377 123.63 54.442 129.531 51.102 135.654C47.762 141.777 44.8117 147.455 42.251 152.688C40.1357 157.141 38.41 160.815 37.074 163.71C35.738 166.493 35.07 168.664 35.07 170.223C35.07 171.782 35.9607 172.951 37.742 173.73C39.5233 174.398 42.585 174.843 46.927 175.066ZM179.692 238.526C171.231 238.526 163.66 236.522 156.98 232.514C150.3 228.617 144.622 223.273 139.946 216.482C135.381 209.691 131.874 202.009 129.425 193.436C126.976 184.863 125.751 175.957 125.751 166.716C125.751 155.694 127.254 145.34 130.26 135.654C133.377 125.857 137.831 117.117 143.62 109.435C149.409 101.753 156.368 95.407 164.495 90.397L166.833 95.407C172.288 92.6237 178.189 91.232 184.535 91.232C193.664 91.232 201.625 93.236 208.416 97.244C215.319 101.141 220.997 106.485 225.45 113.276C230.015 119.956 233.41 127.471 235.637 135.821C237.975 144.171 239.144 152.799 239.144 161.706C239.144 174.955 237.418 186.422 233.967 196.108C230.627 205.794 226.118 213.754 220.44 219.989C214.762 226.224 208.36 230.844 201.235 233.85C194.221 236.967 187.04 238.526 179.692 238.526ZM153.139 168.219C153.139 172.227 153.529 176.736 154.308 181.746C155.199 186.756 156.702 191.543 158.817 196.108C160.932 200.561 163.771 204.291 167.334 207.297C171.008 210.192 175.684 211.639 181.362 211.639C187.485 211.639 192.829 209.579 197.394 205.46C201.959 201.229 205.521 195.384 208.082 187.925C210.754 180.466 212.09 171.837 212.09 162.04C212.09 152.243 210.587 144.227 207.581 137.992C204.686 131.646 201.012 126.97 196.559 123.964C192.217 120.847 187.819 119.288 183.366 119.288C181.028 119.288 178.801 119.956 176.686 121.292C174.571 122.628 172.901 124.409 171.676 126.636L169.338 121.626C164.105 126.859 160.376 132.147 158.149 137.491C155.922 142.835 154.531 148.123 153.974 153.356C153.417 158.477 153.139 163.432 153.139 168.219ZM296.032 201.786C290.354 201.786 284.621 201.675 278.831 201.452C273.042 201.118 267.698 200.227 262.799 198.78C258.012 197.333 254.171 194.939 251.276 191.599C248.382 188.259 246.934 183.583 246.934 177.571C246.934 173.563 247.936 168.664 249.94 162.875C251.944 157.086 254.505 150.907 257.622 144.338C260.851 137.658 264.302 130.978 267.976 124.298C271.762 117.507 275.436 111.049 278.998 104.926C282.561 98.6913 285.678 93.236 288.35 88.56L310.728 101.252C310.84 97.8007 310.895 94.572 310.895 91.566L337.949 91.9C337.281 103.256 336.558 116.059 335.778 130.31C335.11 144.561 334.387 158.867 333.607 173.229C338.283 172.784 342.959 172.171 347.635 171.392C352.311 170.613 356.932 169.666 361.496 168.553L362.999 196.275C357.655 197.054 352.367 197.778 347.134 198.446C342.013 199.114 337.003 199.671 332.104 200.116C331.77 207.019 331.436 213.699 331.102 220.156C330.768 226.502 330.434 232.403 330.1 237.858L301.71 237.19C302.378 231.957 302.991 226.335 303.547 220.323C304.215 214.311 304.828 208.076 305.384 201.619C302.156 201.73 299.038 201.786 296.032 201.786ZM286.513 175.066C288.74 175.177 290.911 175.233 293.026 175.233C295.142 175.233 297.201 175.233 299.205 175.233C301.877 175.233 304.549 175.177 307.221 175.066C308.112 162.263 308.836 149.571 309.392 136.99C309.949 124.409 310.394 113.053 310.728 102.922C307.722 107.153 304.438 112.163 300.875 117.952C297.424 123.63 294.028 129.531 290.688 135.654C287.348 141.777 284.398 147.455 281.837 152.688C279.722 157.141 277.996 160.815 276.66 163.71C275.324 166.493 274.656 168.664 274.656 170.223C274.656 171.782 275.547 172.951 277.328 173.73C279.11 174.398 282.171 174.843 286.513 175.066Z" fill="#3385D7"/>
</svg>
